# xmcd CD database file
#
# Track frame offsets:
#	150
#	13782
#	39145
#	54362
#	74710
#	96300
#	121480
#	137747
#	152180
#	165880
#	182332
#
# Disc length: 2729 seconds
#
# Revision: 5
# Processed by: cddbd v1.5.2PL0 Copyright (c) Steve Scherf et al.
# Submitted via: CDex 1.51
#
DISCID=8a0aa70b
DTITLE=Steve Cropper - With A Little Help From My Friends
DYEAR=1990
DGENRE=R&B
TTITLE0=Crop-Dustin'
TTITLE1=Land Of 1000 Dances
TTITLE2=99-1/2
TTITLE3=Boo-Ga-Loo Down Broadway
TTITLE4=Funky Broadway
TTITLE5=With A Little Help From My Friends
TTITLE6=Oh, Pretty Woman
TTITLE7=I'd Rather Drink Muddy Water
TTITLE8=The Way I Feel Tonight
TTITLE9=In The Midnight Hour
TTITLE10=Rattlesnake
EXTD=YEAR: 1990
EXTT0=
EXTT1=
EXTT2=
EXTT3=
EXTT4=
EXTT5=
EXTT6=
EXTT7=
EXTT8=
EXTT9=
EXTT10=
PLAYORDER=
